<mxfile host="app.diagrams.net" agent="Mozilla/5.0 (Macintosh; Intel Mac OS X 10_15_7) AppleWebKit/537.36 (KHTML, like Gecko) Chrome/128.0.0.0 Safari/537.36" version="24.7.14">
  <diagram name="Page-1" id="Ua3LVSzrzk0TPf5yYThH">
    <mxGraphModel dx="1587" dy="519" grid="1" gridSize="10" guides="1" tooltips="1" connect="1" arrows="1" fold="1" page="1" pageScale="1" pageWidth="850" pageHeight="1100" math="0" shadow="0">
      <root>
        <mxCell id="0" />
        <mxCell id="1" parent="0" />
        <mxCell id="NQibRxcGuDrQJBtcCt0Y-1" value="Developer Workstation" style="rounded=1;whiteSpace=wrap;html=1;" vertex="1" parent="1">
          <mxGeometry x="-40" y="260" width="120" height="60" as="geometry" />
        </mxCell>
        <mxCell id="NQibRxcGuDrQJBtcCt0Y-2" value="Github" style="rounded=1;whiteSpace=wrap;html=1;" vertex="1" parent="1">
          <mxGeometry x="160" y="260" width="120" height="60" as="geometry" />
        </mxCell>
        <mxCell id="NQibRxcGuDrQJBtcCt0Y-23" value="" style="edgeStyle=orthogonalEdgeStyle;rounded=0;orthogonalLoop=1;jettySize=auto;html=1;" edge="1" parent="1" source="NQibRxcGuDrQJBtcCt0Y-3" target="NQibRxcGuDrQJBtcCt0Y-2">
          <mxGeometry relative="1" as="geometry" />
        </mxCell>
        <mxCell id="NQibRxcGuDrQJBtcCt0Y-3" value="Github Actions" style="rounded=1;whiteSpace=wrap;html=1;" vertex="1" parent="1">
          <mxGeometry x="350" y="260" width="120" height="60" as="geometry" />
        </mxCell>
        <mxCell id="NQibRxcGuDrQJBtcCt0Y-5" value="Frontend" style="rounded=1;whiteSpace=wrap;html=1;" vertex="1" parent="1">
          <mxGeometry x="500" y="140" width="120" height="60" as="geometry" />
        </mxCell>
        <mxCell id="NQibRxcGuDrQJBtcCt0Y-6" value="Backend&lt;br&gt;(Node.js)" style="rounded=1;whiteSpace=wrap;html=1;" vertex="1" parent="1">
          <mxGeometry x="500" y="400" width="120" height="60" as="geometry" />
        </mxCell>
        <mxCell id="NQibRxcGuDrQJBtcCt0Y-7" value="" style="endArrow=classic;html=1;rounded=0;entryX=0.5;entryY=1;entryDx=0;entryDy=0;" edge="1" parent="1" target="NQibRxcGuDrQJBtcCt0Y-5">
          <mxGeometry width="50" height="50" relative="1" as="geometry">
            <mxPoint x="470" y="260" as="sourcePoint" />
            <mxPoint x="520" y="210" as="targetPoint" />
          </mxGeometry>
        </mxCell>
        <mxCell id="NQibRxcGuDrQJBtcCt0Y-8" value="" style="endArrow=classic;html=1;rounded=0;entryX=0.4;entryY=-0.067;entryDx=0;entryDy=0;entryPerimeter=0;" edge="1" parent="1" target="NQibRxcGuDrQJBtcCt0Y-6">
          <mxGeometry width="50" height="50" relative="1" as="geometry">
            <mxPoint x="470" y="315" as="sourcePoint" />
            <mxPoint x="520" y="265" as="targetPoint" />
          </mxGeometry>
        </mxCell>
        <mxCell id="NQibRxcGuDrQJBtcCt0Y-9" value="Unit Test &amp;amp; Code Coverage" style="rounded=1;whiteSpace=wrap;html=1;" vertex="1" parent="1">
          <mxGeometry x="670" y="250" width="120" height="60" as="geometry" />
        </mxCell>
        <mxCell id="NQibRxcGuDrQJBtcCt0Y-10" value="" style="endArrow=classic;html=1;rounded=0;exitX=1;exitY=0.5;exitDx=0;exitDy=0;entryX=0.5;entryY=0;entryDx=0;entryDy=0;" edge="1" parent="1" source="NQibRxcGuDrQJBtcCt0Y-5" target="NQibRxcGuDrQJBtcCt0Y-9">
          <mxGeometry width="50" height="50" relative="1" as="geometry">
            <mxPoint x="700" y="300" as="sourcePoint" />
            <mxPoint x="750" y="250" as="targetPoint" />
          </mxGeometry>
        </mxCell>
        <mxCell id="NQibRxcGuDrQJBtcCt0Y-11" value="" style="endArrow=classic;html=1;rounded=0;exitX=1;exitY=0.5;exitDx=0;exitDy=0;entryX=0.5;entryY=1;entryDx=0;entryDy=0;" edge="1" parent="1" source="NQibRxcGuDrQJBtcCt0Y-6" target="NQibRxcGuDrQJBtcCt0Y-9">
          <mxGeometry width="50" height="50" relative="1" as="geometry">
            <mxPoint x="630" y="180" as="sourcePoint" />
            <mxPoint x="740" y="260" as="targetPoint" />
          </mxGeometry>
        </mxCell>
        <mxCell id="NQibRxcGuDrQJBtcCt0Y-12" value="" style="endArrow=classic;html=1;rounded=0;" edge="1" parent="1">
          <mxGeometry width="50" height="50" relative="1" as="geometry">
            <mxPoint x="790" y="280" as="sourcePoint" />
            <mxPoint x="880" y="280" as="targetPoint" />
          </mxGeometry>
        </mxCell>
        <mxCell id="NQibRxcGuDrQJBtcCt0Y-20" value="" style="edgeStyle=orthogonalEdgeStyle;rounded=0;orthogonalLoop=1;jettySize=auto;html=1;" edge="1" parent="1" source="NQibRxcGuDrQJBtcCt0Y-13" target="NQibRxcGuDrQJBtcCt0Y-14">
          <mxGeometry relative="1" as="geometry" />
        </mxCell>
        <mxCell id="NQibRxcGuDrQJBtcCt0Y-13" value="Build Docker Images" style="rounded=1;whiteSpace=wrap;html=1;" vertex="1" parent="1">
          <mxGeometry x="880" y="250" width="120" height="60" as="geometry" />
        </mxCell>
        <mxCell id="NQibRxcGuDrQJBtcCt0Y-14" value="Push to Artifact" style="rounded=1;whiteSpace=wrap;html=1;" vertex="1" parent="1">
          <mxGeometry x="1040" y="250" width="120" height="60" as="geometry" />
        </mxCell>
        <mxCell id="NQibRxcGuDrQJBtcCt0Y-15" value="" style="endArrow=classic;html=1;rounded=0;" edge="1" parent="1">
          <mxGeometry width="50" height="50" relative="1" as="geometry">
            <mxPoint x="1160" y="280" as="sourcePoint" />
            <mxPoint x="1220" y="280" as="targetPoint" />
          </mxGeometry>
        </mxCell>
        <mxCell id="NQibRxcGuDrQJBtcCt0Y-16" value="Conditional Steps" style="rounded=1;whiteSpace=wrap;html=1;" vertex="1" parent="1">
          <mxGeometry x="1220" y="250" width="120" height="60" as="geometry" />
        </mxCell>
        <mxCell id="NQibRxcGuDrQJBtcCt0Y-17" value="Deploy to Cloud Infrastructure" style="rounded=1;whiteSpace=wrap;html=1;" vertex="1" parent="1">
          <mxGeometry x="1400" y="250" width="120" height="60" as="geometry" />
        </mxCell>
        <mxCell id="NQibRxcGuDrQJBtcCt0Y-18" value="" style="endArrow=classic;html=1;rounded=0;" edge="1" parent="1">
          <mxGeometry width="50" height="50" relative="1" as="geometry">
            <mxPoint x="1340" y="279.5" as="sourcePoint" />
            <mxPoint x="1400" y="279.5" as="targetPoint" />
          </mxGeometry>
        </mxCell>
        <mxCell id="NQibRxcGuDrQJBtcCt0Y-19" value="" style="endArrow=classic;html=1;rounded=0;" edge="1" parent="1">
          <mxGeometry width="50" height="50" relative="1" as="geometry">
            <mxPoint x="1000" y="279.5" as="sourcePoint" />
            <mxPoint x="1040" y="280" as="targetPoint" />
          </mxGeometry>
        </mxCell>
        <mxCell id="NQibRxcGuDrQJBtcCt0Y-21" value="" style="endArrow=classic;html=1;rounded=0;exitX=1;exitY=0.5;exitDx=0;exitDy=0;entryX=0;entryY=0.5;entryDx=0;entryDy=0;" edge="1" parent="1" source="NQibRxcGuDrQJBtcCt0Y-2" target="NQibRxcGuDrQJBtcCt0Y-3">
          <mxGeometry width="50" height="50" relative="1" as="geometry">
            <mxPoint x="350" y="350" as="sourcePoint" />
            <mxPoint x="390" y="350.5" as="targetPoint" />
          </mxGeometry>
        </mxCell>
        <mxCell id="NQibRxcGuDrQJBtcCt0Y-22" value="" style="endArrow=classic;html=1;rounded=0;exitX=1;exitY=0.5;exitDx=0;exitDy=0;" edge="1" parent="1" source="NQibRxcGuDrQJBtcCt0Y-1">
          <mxGeometry width="50" height="50" relative="1" as="geometry">
            <mxPoint x="320" y="300" as="sourcePoint" />
            <mxPoint x="160" y="290" as="targetPoint" />
          </mxGeometry>
        </mxCell>
        <mxCell id="NQibRxcGuDrQJBtcCt0Y-24" value="Push Code" style="text;strokeColor=none;align=center;fillColor=none;html=1;verticalAlign=middle;whiteSpace=wrap;rounded=0;" vertex="1" parent="1">
          <mxGeometry x="100" y="240" width="60" height="30" as="geometry" />
        </mxCell>
        <mxCell id="NQibRxcGuDrQJBtcCt0Y-27" value="Trigger CI/CD" style="text;strokeColor=none;align=center;fillColor=none;html=1;verticalAlign=middle;whiteSpace=wrap;rounded=0;" vertex="1" parent="1">
          <mxGeometry x="280" y="240" width="60" height="30" as="geometry" />
        </mxCell>
        <mxCell id="NQibRxcGuDrQJBtcCt0Y-28" value="Queue-Based Throttling" style="text;strokeColor=none;align=center;fillColor=none;html=1;verticalAlign=middle;whiteSpace=wrap;rounded=0;" vertex="1" parent="1">
          <mxGeometry x="-70" y="550" width="180" height="30" as="geometry" />
        </mxCell>
        <mxCell id="NQibRxcGuDrQJBtcCt0Y-29" value="Deployment Plan for Multiple OS" style="text;strokeColor=none;align=center;fillColor=none;html=1;verticalAlign=middle;whiteSpace=wrap;rounded=0;" vertex="1" parent="1">
          <mxGeometry x="-40" y="50" width="180" height="30" as="geometry" />
        </mxCell>
        <mxCell id="NQibRxcGuDrQJBtcCt0Y-30" value="15 Parallel Jobs" style="rounded=1;whiteSpace=wrap;html=1;" vertex="1" parent="1">
          <mxGeometry x="-40" y="690" width="120" height="60" as="geometry" />
        </mxCell>
        <mxCell id="NQibRxcGuDrQJBtcCt0Y-31" value="Signing Queue" style="rounded=1;whiteSpace=wrap;html=1;" vertex="1" parent="1">
          <mxGeometry x="160" y="690" width="120" height="60" as="geometry" />
        </mxCell>
        <mxCell id="NQibRxcGuDrQJBtcCt0Y-32" value="Signing Worker 1" style="rounded=1;whiteSpace=wrap;html=1;" vertex="1" parent="1">
          <mxGeometry x="360" y="595" width="120" height="60" as="geometry" />
        </mxCell>
        <mxCell id="NQibRxcGuDrQJBtcCt0Y-33" value="Signing Worker 2" style="rounded=1;whiteSpace=wrap;html=1;" vertex="1" parent="1">
          <mxGeometry x="360" y="690" width="120" height="60" as="geometry" />
        </mxCell>
        <mxCell id="NQibRxcGuDrQJBtcCt0Y-34" value="Signing Worker 3" style="rounded=1;whiteSpace=wrap;html=1;" vertex="1" parent="1">
          <mxGeometry x="365" y="790" width="120" height="60" as="geometry" />
        </mxCell>
        <mxCell id="NQibRxcGuDrQJBtcCt0Y-35" value="" style="endArrow=classic;html=1;rounded=0;entryX=0;entryY=0.5;entryDx=0;entryDy=0;" edge="1" parent="1" target="NQibRxcGuDrQJBtcCt0Y-31">
          <mxGeometry width="50" height="50" relative="1" as="geometry">
            <mxPoint x="80" y="720" as="sourcePoint" />
            <mxPoint x="130" y="670" as="targetPoint" />
          </mxGeometry>
        </mxCell>
        <mxCell id="NQibRxcGuDrQJBtcCt0Y-36" value="" style="endArrow=classic;html=1;rounded=0;entryX=0;entryY=0.5;entryDx=0;entryDy=0;" edge="1" parent="1">
          <mxGeometry width="50" height="50" relative="1" as="geometry">
            <mxPoint x="280" y="719.17" as="sourcePoint" />
            <mxPoint x="360" y="719.17" as="targetPoint" />
          </mxGeometry>
        </mxCell>
        <mxCell id="NQibRxcGuDrQJBtcCt0Y-37" value="" style="endArrow=classic;html=1;rounded=0;entryX=0;entryY=0.5;entryDx=0;entryDy=0;exitX=1;exitY=0.5;exitDx=0;exitDy=0;" edge="1" parent="1" source="NQibRxcGuDrQJBtcCt0Y-31" target="NQibRxcGuDrQJBtcCt0Y-32">
          <mxGeometry width="50" height="50" relative="1" as="geometry">
            <mxPoint x="280" y="690" as="sourcePoint" />
            <mxPoint x="360" y="690" as="targetPoint" />
          </mxGeometry>
        </mxCell>
        <mxCell id="NQibRxcGuDrQJBtcCt0Y-38" value="" style="endArrow=classic;html=1;rounded=0;entryX=0;entryY=0.75;entryDx=0;entryDy=0;" edge="1" parent="1" target="NQibRxcGuDrQJBtcCt0Y-34">
          <mxGeometry width="50" height="50" relative="1" as="geometry">
            <mxPoint x="290" y="720" as="sourcePoint" />
            <mxPoint x="370" y="635" as="targetPoint" />
          </mxGeometry>
        </mxCell>
        <mxCell id="NQibRxcGuDrQJBtcCt0Y-39" value="Signing Server 1" style="rounded=1;whiteSpace=wrap;html=1;" vertex="1" parent="1">
          <mxGeometry x="560" y="592.5" width="120" height="60" as="geometry" />
        </mxCell>
        <mxCell id="NQibRxcGuDrQJBtcCt0Y-40" value="Signing Server 2" style="rounded=1;whiteSpace=wrap;html=1;" vertex="1" parent="1">
          <mxGeometry x="560" y="687.5" width="120" height="60" as="geometry" />
        </mxCell>
        <mxCell id="NQibRxcGuDrQJBtcCt0Y-41" value="Signing Server 3" style="rounded=1;whiteSpace=wrap;html=1;" vertex="1" parent="1">
          <mxGeometry x="565" y="787.5" width="120" height="60" as="geometry" />
        </mxCell>
        <mxCell id="NQibRxcGuDrQJBtcCt0Y-42" value="" style="endArrow=classic;html=1;rounded=0;entryX=0;entryY=0.5;entryDx=0;entryDy=0;" edge="1" parent="1">
          <mxGeometry width="50" height="50" relative="1" as="geometry">
            <mxPoint x="480" y="624.17" as="sourcePoint" />
            <mxPoint x="560" y="624.17" as="targetPoint" />
          </mxGeometry>
        </mxCell>
        <mxCell id="NQibRxcGuDrQJBtcCt0Y-43" value="" style="endArrow=classic;html=1;rounded=0;entryX=0;entryY=0.5;entryDx=0;entryDy=0;" edge="1" parent="1">
          <mxGeometry width="50" height="50" relative="1" as="geometry">
            <mxPoint x="480" y="716.67" as="sourcePoint" />
            <mxPoint x="560" y="716.67" as="targetPoint" />
          </mxGeometry>
        </mxCell>
        <mxCell id="NQibRxcGuDrQJBtcCt0Y-44" value="" style="endArrow=classic;html=1;rounded=0;entryX=0;entryY=0.5;entryDx=0;entryDy=0;" edge="1" parent="1">
          <mxGeometry width="50" height="50" relative="1" as="geometry">
            <mxPoint x="485" y="819.17" as="sourcePoint" />
            <mxPoint x="565" y="819.17" as="targetPoint" />
          </mxGeometry>
        </mxCell>
        <mxCell id="NQibRxcGuDrQJBtcCt0Y-45" value="Batch Signing Process" style="text;strokeColor=none;align=center;fillColor=none;html=1;verticalAlign=middle;whiteSpace=wrap;rounded=0;" vertex="1" parent="1">
          <mxGeometry x="-70" y="940" width="180" height="30" as="geometry" />
        </mxCell>
        <mxCell id="NQibRxcGuDrQJBtcCt0Y-46" value="15 Parallel Jobs" style="rounded=1;whiteSpace=wrap;html=1;" vertex="1" parent="1">
          <mxGeometry x="-40" y="1080" width="120" height="60" as="geometry" />
        </mxCell>
        <mxCell id="NQibRxcGuDrQJBtcCt0Y-47" value="Create Batch Archives" style="rounded=1;whiteSpace=wrap;html=1;" vertex="1" parent="1">
          <mxGeometry x="160" y="1080" width="120" height="60" as="geometry" />
        </mxCell>
        <mxCell id="NQibRxcGuDrQJBtcCt0Y-49" value="Send Batch to Sign" style="rounded=1;whiteSpace=wrap;html=1;" vertex="1" parent="1">
          <mxGeometry x="360" y="1080" width="120" height="60" as="geometry" />
        </mxCell>
        <mxCell id="NQibRxcGuDrQJBtcCt0Y-51" value="" style="endArrow=classic;html=1;rounded=0;entryX=0;entryY=0.5;entryDx=0;entryDy=0;" edge="1" parent="1" target="NQibRxcGuDrQJBtcCt0Y-47">
          <mxGeometry width="50" height="50" relative="1" as="geometry">
            <mxPoint x="80" y="1110" as="sourcePoint" />
            <mxPoint x="130" y="1060" as="targetPoint" />
          </mxGeometry>
        </mxCell>
        <mxCell id="NQibRxcGuDrQJBtcCt0Y-52" value="" style="endArrow=classic;html=1;rounded=0;entryX=0;entryY=0.5;entryDx=0;entryDy=0;" edge="1" parent="1">
          <mxGeometry width="50" height="50" relative="1" as="geometry">
            <mxPoint x="280" y="1109.17" as="sourcePoint" />
            <mxPoint x="360" y="1109.17" as="targetPoint" />
          </mxGeometry>
        </mxCell>
        <mxCell id="NQibRxcGuDrQJBtcCt0Y-56" value="Signing Server" style="rounded=1;whiteSpace=wrap;html=1;" vertex="1" parent="1">
          <mxGeometry x="560" y="1077.5" width="120" height="60" as="geometry" />
        </mxCell>
        <mxCell id="NQibRxcGuDrQJBtcCt0Y-59" value="" style="endArrow=classic;html=1;rounded=0;entryX=0;entryY=0.5;entryDx=0;entryDy=0;" edge="1" parent="1">
          <mxGeometry width="50" height="50" relative="1" as="geometry">
            <mxPoint x="480" y="1106.67" as="sourcePoint" />
            <mxPoint x="560" y="1106.67" as="targetPoint" />
          </mxGeometry>
        </mxCell>
        <mxCell id="NQibRxcGuDrQJBtcCt0Y-77" value="Signed Batch Archives" style="rounded=1;whiteSpace=wrap;html=1;" vertex="1" parent="1">
          <mxGeometry x="740" y="1077.5" width="120" height="60" as="geometry" />
        </mxCell>
        <mxCell id="NQibRxcGuDrQJBtcCt0Y-78" value="Extract and Distrubute" style="rounded=1;whiteSpace=wrap;html=1;" vertex="1" parent="1">
          <mxGeometry x="740" y="1200" width="120" height="60" as="geometry" />
        </mxCell>
        <mxCell id="NQibRxcGuDrQJBtcCt0Y-79" value="" style="endArrow=classic;html=1;rounded=0;exitX=1;exitY=0.5;exitDx=0;exitDy=0;" edge="1" parent="1" source="NQibRxcGuDrQJBtcCt0Y-56">
          <mxGeometry width="50" height="50" relative="1" as="geometry">
            <mxPoint x="685" y="1106.67" as="sourcePoint" />
            <mxPoint x="740" y="1107" as="targetPoint" />
          </mxGeometry>
        </mxCell>
        <mxCell id="NQibRxcGuDrQJBtcCt0Y-80" value="" style="endArrow=classic;html=1;rounded=0;exitX=0.5;exitY=1;exitDx=0;exitDy=0;" edge="1" parent="1" source="NQibRxcGuDrQJBtcCt0Y-77" target="NQibRxcGuDrQJBtcCt0Y-78">
          <mxGeometry width="50" height="50" relative="1" as="geometry">
            <mxPoint x="690" y="1118" as="sourcePoint" />
            <mxPoint x="750" y="1117" as="targetPoint" />
          </mxGeometry>
        </mxCell>
        <mxCell id="NQibRxcGuDrQJBtcCt0Y-97" value="Pipeline Segmentation" style="text;strokeColor=none;align=center;fillColor=none;html=1;verticalAlign=middle;whiteSpace=wrap;rounded=0;" vertex="1" parent="1">
          <mxGeometry x="-70" y="1350" width="180" height="30" as="geometry" />
        </mxCell>
        <mxCell id="NQibRxcGuDrQJBtcCt0Y-98" value="15 Parallel Jobs" style="rounded=1;whiteSpace=wrap;html=1;" vertex="1" parent="1">
          <mxGeometry x="-40" y="1490" width="120" height="60" as="geometry" />
        </mxCell>
        <mxCell id="NQibRxcGuDrQJBtcCt0Y-99" value="Seperate Pipelines" style="rounded=1;whiteSpace=wrap;html=1;" vertex="1" parent="1">
          <mxGeometry x="160" y="1490" width="120" height="60" as="geometry" />
        </mxCell>
        <mxCell id="NQibRxcGuDrQJBtcCt0Y-100" value="Build Files" style="rounded=1;whiteSpace=wrap;html=1;" vertex="1" parent="1">
          <mxGeometry x="360" y="1395" width="120" height="60" as="geometry" />
        </mxCell>
        <mxCell id="NQibRxcGuDrQJBtcCt0Y-101" value="Build Files" style="rounded=1;whiteSpace=wrap;html=1;" vertex="1" parent="1">
          <mxGeometry x="360" y="1490" width="120" height="60" as="geometry" />
        </mxCell>
        <mxCell id="NQibRxcGuDrQJBtcCt0Y-102" value="Build Files" style="rounded=1;whiteSpace=wrap;html=1;" vertex="1" parent="1">
          <mxGeometry x="365" y="1590" width="120" height="60" as="geometry" />
        </mxCell>
        <mxCell id="NQibRxcGuDrQJBtcCt0Y-103" value="" style="endArrow=classic;html=1;rounded=0;entryX=0;entryY=0.5;entryDx=0;entryDy=0;" edge="1" parent="1" target="NQibRxcGuDrQJBtcCt0Y-99">
          <mxGeometry width="50" height="50" relative="1" as="geometry">
            <mxPoint x="80" y="1520" as="sourcePoint" />
            <mxPoint x="130" y="1470" as="targetPoint" />
          </mxGeometry>
        </mxCell>
        <mxCell id="NQibRxcGuDrQJBtcCt0Y-104" value="" style="endArrow=classic;html=1;rounded=0;entryX=0;entryY=0.5;entryDx=0;entryDy=0;" edge="1" parent="1">
          <mxGeometry width="50" height="50" relative="1" as="geometry">
            <mxPoint x="280" y="1519.17" as="sourcePoint" />
            <mxPoint x="360" y="1519.17" as="targetPoint" />
          </mxGeometry>
        </mxCell>
        <mxCell id="NQibRxcGuDrQJBtcCt0Y-105" value="" style="endArrow=classic;html=1;rounded=0;entryX=0;entryY=0.5;entryDx=0;entryDy=0;exitX=1;exitY=0.5;exitDx=0;exitDy=0;" edge="1" parent="1" source="NQibRxcGuDrQJBtcCt0Y-99" target="NQibRxcGuDrQJBtcCt0Y-100">
          <mxGeometry width="50" height="50" relative="1" as="geometry">
            <mxPoint x="280" y="1490" as="sourcePoint" />
            <mxPoint x="360" y="1490" as="targetPoint" />
          </mxGeometry>
        </mxCell>
        <mxCell id="NQibRxcGuDrQJBtcCt0Y-106" value="" style="endArrow=classic;html=1;rounded=0;entryX=0;entryY=0.75;entryDx=0;entryDy=0;" edge="1" parent="1" target="NQibRxcGuDrQJBtcCt0Y-102">
          <mxGeometry width="50" height="50" relative="1" as="geometry">
            <mxPoint x="290" y="1520" as="sourcePoint" />
            <mxPoint x="370" y="1435" as="targetPoint" />
          </mxGeometry>
        </mxCell>
        <mxCell id="NQibRxcGuDrQJBtcCt0Y-107" value="Signing Server 1" style="rounded=1;whiteSpace=wrap;html=1;" vertex="1" parent="1">
          <mxGeometry x="560" y="1392.5" width="120" height="60" as="geometry" />
        </mxCell>
        <mxCell id="NQibRxcGuDrQJBtcCt0Y-108" value="Signing Server 2" style="rounded=1;whiteSpace=wrap;html=1;" vertex="1" parent="1">
          <mxGeometry x="560" y="1487.5" width="120" height="60" as="geometry" />
        </mxCell>
        <mxCell id="NQibRxcGuDrQJBtcCt0Y-109" value="Signing Server 3" style="rounded=1;whiteSpace=wrap;html=1;" vertex="1" parent="1">
          <mxGeometry x="565" y="1587.5" width="120" height="60" as="geometry" />
        </mxCell>
        <mxCell id="NQibRxcGuDrQJBtcCt0Y-110" value="" style="endArrow=classic;html=1;rounded=0;entryX=0;entryY=0.5;entryDx=0;entryDy=0;" edge="1" parent="1">
          <mxGeometry width="50" height="50" relative="1" as="geometry">
            <mxPoint x="480" y="1424.17" as="sourcePoint" />
            <mxPoint x="560" y="1424.17" as="targetPoint" />
          </mxGeometry>
        </mxCell>
        <mxCell id="NQibRxcGuDrQJBtcCt0Y-111" value="" style="endArrow=classic;html=1;rounded=0;entryX=0;entryY=0.5;entryDx=0;entryDy=0;" edge="1" parent="1">
          <mxGeometry width="50" height="50" relative="1" as="geometry">
            <mxPoint x="480" y="1516.67" as="sourcePoint" />
            <mxPoint x="560" y="1516.67" as="targetPoint" />
          </mxGeometry>
        </mxCell>
        <mxCell id="NQibRxcGuDrQJBtcCt0Y-112" value="" style="endArrow=classic;html=1;rounded=0;entryX=0;entryY=0.5;entryDx=0;entryDy=0;" edge="1" parent="1">
          <mxGeometry width="50" height="50" relative="1" as="geometry">
            <mxPoint x="485" y="1619.17" as="sourcePoint" />
            <mxPoint x="565" y="1619.17" as="targetPoint" />
          </mxGeometry>
        </mxCell>
        <mxCell id="NQibRxcGuDrQJBtcCt0Y-113" value="Signed artifacts" style="rounded=1;whiteSpace=wrap;html=1;" vertex="1" parent="1">
          <mxGeometry x="740" y="1395" width="120" height="60" as="geometry" />
        </mxCell>
        <mxCell id="NQibRxcGuDrQJBtcCt0Y-114" value="Signed artifacts" style="rounded=1;whiteSpace=wrap;html=1;" vertex="1" parent="1">
          <mxGeometry x="740" y="1490" width="120" height="60" as="geometry" />
        </mxCell>
        <mxCell id="NQibRxcGuDrQJBtcCt0Y-115" value="Signed artifacts" style="rounded=1;whiteSpace=wrap;html=1;" vertex="1" parent="1">
          <mxGeometry x="740" y="1590" width="120" height="60" as="geometry" />
        </mxCell>
        <mxCell id="NQibRxcGuDrQJBtcCt0Y-116" value="" style="endArrow=classic;html=1;rounded=0;entryX=0;entryY=0.5;entryDx=0;entryDy=0;exitX=1;exitY=0.5;exitDx=0;exitDy=0;" edge="1" parent="1" source="NQibRxcGuDrQJBtcCt0Y-107" target="NQibRxcGuDrQJBtcCt0Y-113">
          <mxGeometry width="50" height="50" relative="1" as="geometry">
            <mxPoint x="490" y="1434.17" as="sourcePoint" />
            <mxPoint x="570" y="1434.17" as="targetPoint" />
          </mxGeometry>
        </mxCell>
        <mxCell id="NQibRxcGuDrQJBtcCt0Y-117" value="" style="endArrow=classic;html=1;rounded=0;entryX=0;entryY=0.5;entryDx=0;entryDy=0;exitX=1;exitY=0.5;exitDx=0;exitDy=0;" edge="1" parent="1" source="NQibRxcGuDrQJBtcCt0Y-108" target="NQibRxcGuDrQJBtcCt0Y-114">
          <mxGeometry width="50" height="50" relative="1" as="geometry">
            <mxPoint x="690" y="1433" as="sourcePoint" />
            <mxPoint x="750" y="1435" as="targetPoint" />
          </mxGeometry>
        </mxCell>
        <mxCell id="NQibRxcGuDrQJBtcCt0Y-118" value="" style="endArrow=classic;html=1;rounded=0;entryX=0;entryY=0.5;entryDx=0;entryDy=0;exitX=1;exitY=0.5;exitDx=0;exitDy=0;" edge="1" parent="1" source="NQibRxcGuDrQJBtcCt0Y-109" target="NQibRxcGuDrQJBtcCt0Y-115">
          <mxGeometry width="50" height="50" relative="1" as="geometry">
            <mxPoint x="690" y="1528" as="sourcePoint" />
            <mxPoint x="750" y="1530" as="targetPoint" />
          </mxGeometry>
        </mxCell>
        <mxCell id="NQibRxcGuDrQJBtcCt0Y-119" value="15 Parallel Jobs" style="rounded=1;whiteSpace=wrap;html=1;" vertex="1" parent="1">
          <mxGeometry x="-30" y="1752.5" width="120" height="60" as="geometry" />
        </mxCell>
        <mxCell id="NQibRxcGuDrQJBtcCt0Y-120" value="Check any Modifications" style="rounded=1;whiteSpace=wrap;html=1;" vertex="1" parent="1">
          <mxGeometry x="170" y="1752.5" width="120" height="60" as="geometry" />
        </mxCell>
        <mxCell id="NQibRxcGuDrQJBtcCt0Y-121" value="Sign only changed environment" style="rounded=1;whiteSpace=wrap;html=1;" vertex="1" parent="1">
          <mxGeometry x="370" y="1752.5" width="120" height="60" as="geometry" />
        </mxCell>
        <mxCell id="NQibRxcGuDrQJBtcCt0Y-122" value="" style="endArrow=classic;html=1;rounded=0;entryX=0;entryY=0.5;entryDx=0;entryDy=0;" edge="1" parent="1" target="NQibRxcGuDrQJBtcCt0Y-120">
          <mxGeometry width="50" height="50" relative="1" as="geometry">
            <mxPoint x="90" y="1782.5" as="sourcePoint" />
            <mxPoint x="140" y="1732.5" as="targetPoint" />
          </mxGeometry>
        </mxCell>
        <mxCell id="NQibRxcGuDrQJBtcCt0Y-123" value="" style="endArrow=classic;html=1;rounded=0;entryX=0;entryY=0.5;entryDx=0;entryDy=0;" edge="1" parent="1">
          <mxGeometry width="50" height="50" relative="1" as="geometry">
            <mxPoint x="290" y="1781.67" as="sourcePoint" />
            <mxPoint x="370" y="1781.67" as="targetPoint" />
          </mxGeometry>
        </mxCell>
        <mxCell id="NQibRxcGuDrQJBtcCt0Y-124" value="Signing Server" style="rounded=1;whiteSpace=wrap;html=1;" vertex="1" parent="1">
          <mxGeometry x="570" y="1750" width="120" height="60" as="geometry" />
        </mxCell>
        <mxCell id="NQibRxcGuDrQJBtcCt0Y-125" value="" style="endArrow=classic;html=1;rounded=0;entryX=0;entryY=0.5;entryDx=0;entryDy=0;" edge="1" parent="1">
          <mxGeometry width="50" height="50" relative="1" as="geometry">
            <mxPoint x="490" y="1779.17" as="sourcePoint" />
            <mxPoint x="570" y="1779.17" as="targetPoint" />
          </mxGeometry>
        </mxCell>
        <mxCell id="NQibRxcGuDrQJBtcCt0Y-126" value="Use cached signed files" style="rounded=1;whiteSpace=wrap;html=1;" vertex="1" parent="1">
          <mxGeometry x="750" y="1750" width="120" height="60" as="geometry" />
        </mxCell>
        <mxCell id="NQibRxcGuDrQJBtcCt0Y-128" value="" style="endArrow=classic;html=1;rounded=0;exitX=1;exitY=0.5;exitDx=0;exitDy=0;" edge="1" parent="1" source="NQibRxcGuDrQJBtcCt0Y-124">
          <mxGeometry width="50" height="50" relative="1" as="geometry">
            <mxPoint x="695" y="1779.17" as="sourcePoint" />
            <mxPoint x="750" y="1779.5" as="targetPoint" />
          </mxGeometry>
        </mxCell>
        <mxCell id="NQibRxcGuDrQJBtcCt0Y-130" value="Incremental Signing" style="text;strokeColor=none;align=center;fillColor=none;html=1;verticalAlign=middle;whiteSpace=wrap;rounded=0;" vertex="1" parent="1">
          <mxGeometry x="-60" y="1680" width="180" height="30" as="geometry" />
        </mxCell>
      </root>
    </mxGraphModel>
  </diagram>
</mxfile>
